<mxfile host="app.diagrams.net" modified="2023-09-15T15:33:11.886Z" agent="Mozilla/5.0 (Linux; Android 10; K) AppleWebKit/537.36 (KHTML, like Gecko) Chrome/116.0.0.0 Safari/537.36" version="21.7.5" etag="XIXYPH5CwRPy__E1-TLr" type="github">
  <diagram name="第 1 页" id="gn4cy_Plw9cmdbyOJ4-p">
    <mxGraphModel>
      <root>
        <mxCell id="0" />
        <mxCell id="1" parent="0" />
      </root>
    </mxGraphModel>
  </diagram>
</mxfile>
